<svg id="Layer_1" data-name="Layer 1" xmlns="http://www.w3.org/2000/svg" xmlns:xlink="http://www.w3.org/1999/xlink" viewBox="0 0 200 200"><defs><style>.cls-1{fill:none;}.cls-2{clip-path:url(#clip-path);}.cls-3{fill:#ffb71b;}.cls-4{fill:#72253d;}.cls-5{fill:#2d2a26;}.cls-6{fill:#011e41;}.cls-7{fill:#fff;}</style><clipPath id="clip-path"><rect class="cls-1" x="32.15" y="0.44" width="136.04" height="199.13"/></clipPath></defs><title>Team_Logos</title><g id="CAVA"><g class="cls-2"><path class="cls-3" d="M96.21,195.86c-.65-.37-16.1-9.31-31.51-27.46-14.28-16.8-31.3-45-31.3-84.19,0-1.11,0-2.45,0-4,0-.65,0-2.14,0-2.14V75.31c.05-8.14.37-24.09,1-34.69.14-2.2.28-4.07.43-5.56l.34-3.43,2.72-2.1a67,67,0,0,1,10-6.14c2.82-1.46,6.07-3,9.65-4.5C75.79,10.22,97.81,2.57,98,2.5l2.14-.74,2.14.74c.25.08,24.87,8.53,43.66,17.77a104.68,104.68,0,0,1,11.93,6.17,48.41,48.41,0,0,1,4.52,3.09l2.71,2.1.35,3.42c.07.7.14,1.51.22,2.48.78,10.1,1.17,28.54,1.23,37.78l0,3.3,0,1.65c0,1.45,0,2.8,0,3.95,0,39.15-17,67.39-31.3,84.19-15.47,18.2-30.87,27.09-31.52,27.46l-4,2.26-4-2.26Z"/><path class="cls-4" d="M100.16.44l-.82.28L98.67,1l-1.07.37c-.2.07-22.41,7.8-40.64,16.46-3.52,1.49-6.79,3-9.65,4.49a67.21,67.21,0,0,0-10.15,6.28l-1.59,1.22-.71.55L34,31l-.11,1.07-.09.88-.2,2c-.16,1.51-.3,3.4-.44,5.61-.65,10.63-1,26.61-1,34.75,0,1,0,1.88,0,2.69h0v.6c0,.51,0,1,0,1.48v.21c0,1.47,0,2.81,0,3.92,0,39.53,17.18,68,31.59,85C79.31,187.54,94.93,196.57,95.59,197l2.31,1.32,1,.58,1.24.71,1.24-.71,1-.58,2.32-1.32c.65-.38,16.25-9.39,31.84-27.74,14.42-17,31.6-45.47,31.6-85,0-1.15,0-2.51,0-4v-.34c0-.42,0-.84,0-1.27V78c0-.81,0-1.71,0-2.68-.06-9.29-.45-27.79-1.23-37.88-.08-1-.15-1.8-.22-2.5l-.2-2-.1-.88-.1-1.07-.86-.66-.7-.54-1.59-1.23a52.65,52.65,0,0,0-4.62-3.17,108.86,108.86,0,0,0-12.12-6.26c-18.5-9.1-42.7-17.45-43.72-17.8L101.64,1,101,.72l-.81-.28Zm0,2.64.67.23,1.06.37c.25.08,24.94,8.58,43.52,17.72a105.42,105.42,0,0,1,11.83,6.1,51.34,51.34,0,0,1,4.4,3l1.59,1.23.7.54.09.88.21,2c.07.69.14,1.49.21,2.44.78,10,1.17,28.45,1.23,37.7,0,1,0,1.87,0,2.67v.62c0,.46,0,.92,0,1.37v.26c0,1.48,0,2.83,0,4,0,38.77-16.85,66.74-31,83.38-15.28,18-30.54,26.82-31.19,27.18l-2.31,1.33-1,.58-1-.58-2.31-1.32c-.65-.37-15.91-9.22-31.18-27.19-14.14-16.64-31-44.61-31-83.38,0-1.11,0-2.44,0-4V80c0-.47,0-.94,0-1.42V78c0-.8,0-1.7,0-2.67.06-8.14.37-24.07,1-34.62.13-2.18.28-4,.43-5.51l.2-2,.09-.88.7-.55,1.59-1.23a64.35,64.35,0,0,1,9.77-6c2.81-1.45,6-2.95,9.57-4.46C76.22,11.4,98.2,3.76,98.42,3.69l1.06-.37.68-.24"/></g><path class="cls-5" d="M163.55,78.61c0,.45,0,.89,0,1.34v.28c0,1.48,0,2.83,0,4,0,38.14-16.59,65.67-30.51,82C118,184,103,192.62,102.41,193l-2.32,1.32L97.78,193c-.63-.36-15.59-9-30.64-26.73-13.91-16.37-30.5-43.9-30.5-82,0-1.15,0-2.5,0-4V80c0-.46,0-.92,0-1.39V78c0-.79,0-1.69,0-2.65.05-8.11.37-24,1-34.5.13-2.15.27-4,.42-5.44l.2-2,1.59-1.23a62.85,62.85,0,0,1,9.46-5.83c2.77-1.43,5.95-2.91,9.47-4.4,18-8.58,40-16.22,40.21-16.29l1.07-.37,1.06.36c.25.08,24.76,8.51,43.31,17.64a101.71,101.71,0,0,1,11.62,6,49.71,49.71,0,0,1,4.23,2.89l1.59,1.23.2,2c.07.71.14,1.53.21,2.39.78,10,1.16,28.33,1.23,37.55,0,1,0,1.86,0,2.65v.63Z"/><path class="cls-3" d="M93.26,112.43c.61-.66,1.29-1.31,2-2L95.17,119h0l-.12,12.14c-7.13,2.17-10.54,2.54-13,2l-.3-.09A1.24,1.24,0,0,1,81,132c-.12-4.79,8.13-15.1,12.28-19.55m14.64,1.84c-.14.25,26.28-15.16,26.28-15.16V93.83l-1.29-1.32c-7.1-6.75-17.67-6.79-28.39-3.87v-55c0-3.62.06-7.07-.22-10.27A26.4,26.4,0,0,0,101.93,14l-1.8-3.65-1.69,3.71A30.67,30.67,0,0,0,96,23.77c-.32,3.27-.32,6.71-.33,10.33l-.26,57.67A112.26,112.26,0,0,0,68.8,107.42l-6,9.22,7.41-1.83c-11.37,14.27-7.31,23.61-6.84,24.58,1.2,3.37,3.93,6.06,8.37,7.83a25.5,25.5,0,0,0,10.45,1.36,50.19,50.19,0,0,0,12.7-2.48l0,1.82a18.55,18.55,0,0,0-8.27,9.79A18.32,18.32,0,0,0,85.55,163c0,.3,0,1.31-.1,2.69a24.56,24.56,0,0,1-.8,4.58l-.27.92-1,2.29c.09.39,2.74-.5,3.93-.93a4.6,4.6,0,0,0,.79-.36,12.41,12.41,0,0,0,2.48-1.91,15.71,15.71,0,0,0,1.62-1.9c.45-.59.86-1.19,1.22-1.69.52-.71,1-1.43,1.49-2.11l0,6.12,0,4.08v1.09a11.22,11.22,0,0,0-.64,1,21.52,21.52,0,0,0-2,6.12c0,.44,1.26.37,3.15.27.26,0,.63,0,1.08-.11a19.17,19.17,0,0,0,3.2-.7c2.1-.65,5.48-2.17,6-5.56l.17-1.21-.34-.23c4.51-4,5.72-8.25,5.55-11.81a14.26,14.26,0,0,0-.56-3.3l1.63.27,1.89.34.34-1.91c1.12-6.51-2.57-11.93-9.91-13V142.3a87.59,87.59,0,0,0,19.35-12.57l.26-.22,2.15-10.82-4.2,2.33c-6.77,3-12.91,5.32-17.55,7V103.5a34.52,34.52,0,0,1,3.87-2c3.45-1.45,5.68-2,6.72-1.91a23.19,23.19,0,0,1-1.43,3.32s-5.52,10.89-5.76,11.33"/><path class="cls-6" d="M132.65,98.24l-.05-3.4-17.33,10.59c-.13.32-2.39,4.67-2.6,4.89l20-12.08Z"/><path class="cls-6" d="M67.55,113.68l6.16-1.51c1.2-1.41,2.37-2.66,3.41-3.71L70.23,110c-.45.6-2.41,3.29-2.68,3.64"/><path class="cls-6" d="M102.75,138c-.9.44-1.81.86-2.72,1.25L98.3,140l-1.2.46a52.6,52.6,0,0,1-16.17,3.77A23.81,23.81,0,0,1,71.3,143a13.45,13.45,0,0,1-5.9-4.16c1,2.75,3.21,5.1,7.28,6.72a23.71,23.71,0,0,0,9.64,1.23,51,51,0,0,0,14.75-3.23l1.21-.43q.87-.34,1.74-.72c.92-.37,1.83-.77,2.73-1.18a86.17,86.17,0,0,0,20-12.82l1-4.75a84,84,0,0,1-21,14.34"/><path class="cls-6" d="M111.29,157.19c-6.46-1.75-14-.17-17.45,4-1.42,1.71-2.7,4.23-5.21,6.81a41,41,0,0,0,.61-5.25,13.66,13.66,0,0,1,8.2-11.68,1,1,0,0,0,.17.56,1.78,1.78,0,0,0,1.12.72c.5.08-.29-.14,0,0l.25,0h0l.21,0h.36l.28,0,.24,0h0l.21-.05h0a3.68,3.68,0,0,0,.47-.15,2,2,0,0,0,1.17-.85h0a1.49,1.49,0,0,0,.14-.24,6.75,6.75,0,0,1,4.22,2.5,15.31,15.31,0,0,0-12.26,5.61,18.43,18.43,0,0,1,16-3.38c.15-2.45-3.19-5.05-5-6.06,3.32,1.08,6.87,4,6.23,7.45M106,170.82c1.69-3.58,2.19-9.9-1.73-12.7h1.34c3.92,3.15,2.19,11.26.39,12.69m-4.45,3.33c3.59-8.66,1-15.09,1-15.21,4.44.66,5.91,10.31-1,15.21m-2,1.74c0,.69-1.46.69-1.45.16l.06-16.6a4.44,4.44,0,0,1,1.54-.63l-.15,17.07ZM102.75,148v-4.6c-.9.41-1.82.8-2.73,1.16v4.77c0,1.13-1.84,1.33-1.77.48l0-4.57-1.22.44,0,3.59-.24.15a16.35,16.35,0,0,0-8.09,9l-.06.16a15.72,15.72,0,0,0-.95,4.69,30.67,30.67,0,0,1-1,7.7s.94-.14,2.76-1.9a25.69,25.69,0,0,0,2.63-3.33c1.66-2.29,3-4.61,5-5.61v2c0,3.9.08,14.48.08,14.52a8.8,8.8,0,0,0-1.92,4.83c0,.13,8.19-.45,8.78-4.7,0,0-1.58-1-1.52-1.07,11.55-8,5.12-17.64,5.12-17.64,2.8.4,4.35.68,5.09.81,1-5.81-2.44-10.6-9.93-10.93"/><path class="cls-4" d="M102.75,130.88c-1,.36-1.92.67-2.71.93l-1.7.57-1.17.37c-.41.12-.63.2-.63.2-30.43,9.47-20.7-10.3-6.8-25.11a61.57,61.57,0,0,1,5.58-5l.08-8.73A108.63,108.63,0,0,0,70.33,109c3.47-1,7-1.73,10.53-2.53C50.64,135.33,68.14,150.6,97.11,139l1.19-.51c.58-.25,1.15-.48,1.73-.74.9-.41,1.81-.85,2.72-1.31a101.56,101.56,0,0,0,20.3-13.54c-8.17,3.59-15.44,6.29-20.3,8Z"/><path class="cls-4" d="M131.74,94.05c-6.62-6.29-16.82-6.18-27.24-3.22V97c8-3.89,17.25-5.11,11.06,7l16.18-9.92Z"/><path class="cls-6" d="M106.43,97.34c-.61.26-1.25.56-1.93.91v3.31a31.78,31.78,0,0,1,3.31-1.65c3.59-1.52,6.67-2.47,8.36-1.93.26-4-4.1-3-9.74-.64Z"/><path class="cls-6" d="M95.3,104.37a49.23,49.23,0,0,0-4.65,4.32c-3.91,4.21-12.94,15.17-12.8,20.92a4.13,4.13,0,0,0,1.44,3.28,5.39,5.39,0,0,1-.05-.71c-.15-5.76,8.89-16.71,12.8-20.92a44,44,0,0,1,3.23-3.11l0-3.78Z"/><path class="cls-6" d="M100.38,15c-2.6,5.72-2.56,12.15-2.59,19.26l-.2,52.19h0l-.22,24.17h0l-.07,6.93h0l-.11,13.16,1.16-.38.08-13.72h0l.06-11.11,0-3.6v-1.49l0-7.58.12-49.37.06-18.87c.29.53,1.34,2.63,1.44,10.06l0,57.63v12l0,10.91h0v0l0,14.52,2.72-.94V113h0V86.45h0V33.76c0-7.12.17-13.57-2.39-18.76Z"/><path class="cls-5" d="M160.85,94.84s-51-29-122.08,0c-.39-6.46,4.28-61.46,4.28-61.46H158.62l2.23,61.46Z"/><path class="cls-7" d="M136.06,64.43V58.28h.56l2.78,0,.56.58c0,1.36,0,2,0,3.4v.57l-3.89,2.67c0-.45,0-.67,0-1.12m2.76-10.62h-7.51c.11.66.17,1,.28,1.65,0,2.21,0,4.41,0,6.61v1.66q0,8.26,0,16.53c1.56.13,2.34.19,3.89.34l.56.05c0-2.24,0-3.36,0-5.59,0-2,0-3,0-5l1.15-.71c1.1,1.72,1.65,2.59,2.75,4.35,0,2.45,0,4.91,0,7.37,1.78.18,2.67.28,4.44.48,0-3.08,0-6.16,0-9.23q-1.83-2.59-3.69-5.16c1.47-.93,2.2-1.4,3.67-2.35,0-2.31,0-4.61,0-6.92-1.56-1.64-2.34-2.45-3.91-4Z"/><path class="cls-7" d="M129.65,58.19c0-1.75,0-2.63,0-4.38h-10.3c.11.64.17,1,.28,1.6q0,12,0,24.07c3.35.18,6.69.39,10,.63,0-1.75,0-2.63,0-4.38-2.23-.15-3.34-.21-5.57-.32q0-3.91,0-7.83c1.78,0,2.67.09,4.46.16,0-1.53,0-2.3,0-3.83l-4.46-.11c0-2.27,0-3.41,0-5.67l5.57.06"/><path class="cls-7" d="M112.1,53.81l.3,1.58q0,4.23,0,8.46v1.59q0,6.87,0,13.75l4.46.16c0-1.7,0-2.55,0-4.26,0-3.19,0-6.38,0-9.58,0-.63,0-1,0-1.59,0-2.84,0-5.68,0-8.52.11-.64.16-.95.26-1.59Z"/><path class="cls-7" d="M62.08,71.06q.78-6.24,1.58-12.47.75,6.13,1.52,12.28l-3.1.19m8.77,9.11Q68.9,67,67,53.81H59.76c.11.68.17,1,.29,1.71q-1.86,13-3.67,26.06c1.78-.21,2.67-.31,4.45-.49.27-2.19.41-3.28.68-5.46l2.11-.17,2.12-.16.65,5.25c1.78-.16,2.67-.24,4.46-.38"/><path class="cls-7" d="M88.82,69.94q.78-5.82,1.57-11.65.77,5.81,1.54,11.6l-3.11,0M97.62,79q-2-12.6-3.89-25.21H86.48c.12.63.18.95.29,1.59l-3.66,24c1.79-.08,2.68-.11,4.46-.17.27-2,.41-3,.68-5l2.12-.06,2.12,0c.26,2,.4,3,.66,5,1.79,0,2.68,0,4.47-.07"/><path class="cls-7" d="M79.81,53.81Q78.4,64.47,77,75.15q-1.38-10.66-2.74-21.34H69.79q1.56,11.46,3.14,22.93c1,1.25,1.5,1.87,2.5,3.1,1.95-.13,2.93-.18,4.89-.29q2-12.87,4-25.74Z"/><path class="cls-7" d="M55,60.79V57.88c-1.55-1.6-2.33-2.42-3.89-4.07H46.41c-1.56,1.69-2.34,2.56-3.9,4.32V83.44c1.55,1.49,2.33,2.23,3.88,3.67,1.88-.31,2.82-.46,4.71-.74,1.56-1.89,2.34-2.81,3.89-4.63,0-3.3,0-4.93,0-8.22-1.5,1.68-3,3.39-4.45,5.11,0,1.66,0,.82,0,2.48l-.55.67-2.5.33L47,81.58q0-11.16,0-22.34l.56-.62,2.5,0,.56.58c0,2.18,0,4.35,0,6.53C52,64,53.52,62.4,55,60.79"/><path class="cls-7" d="M158.86,66.08V58.13c-1.55-1.77-2.33-2.63-3.89-4.32h-5c-1.56,1.65-2.34,2.47-3.89,4.06V60.2c0,2.44,0,3.66,0,6.1,2.84,2.53,5.61,5.11,8.35,7.74v7.54l-.55.53-2.78-.37-.55-.66c0-2.28,0-4.26,0-4.26l-4.45-3.3,0,8.19s2.34,2.73,3.89,4.62l3.33.51,1.66.27c1.55-1.44,2.32-2.18,3.87-3.67V72q-4.1-4-8.33-7.84c0-2,0-3,0-5l.56-.58,2.78.06.56.62v3.51s2.67,2,4.44,3.33"/><path class="cls-7" d="M98.74,53.81c.22.52.34.78.56,1.31V65.36q0,6.83,0,13.65c3.45,0,6.89,0,10.33.1.34-1.67.5-2.51.83-4.19q-3.35-.09-6.69-.1V65.36c0-.63,0-.94,0-1.57V55.12c.22-.53.34-.79.56-1.31Z"/><path class="cls-7" d="M127.92,46.84l-.26.26h-1.57V38.74h1.57l.26.27v7.83ZM130,38.48l-1.83-1.82H124V49.19h4.31l1.7-1.7v-9Z"/><polygon class="cls-7" points="89.02 38.74 89.02 36.66 86.15 36.66 84.18 36.66 84.32 37.44 84.32 49.19 89.02 49.19 89.02 47.1 86.41 47.1 86.41 43.31 88.5 43.31 88.5 41.48 86.41 41.48 86.41 38.74 89.02 38.74 89.02 38.74"/><polygon class="cls-7" points="102.59 49.19 102.59 47.1 99.98 47.1 99.98 43.31 102.07 43.31 102.07 41.49 99.98 41.49 99.98 38.74 102.59 38.74 102.59 36.66 99.72 36.66 97.76 36.66 97.89 37.44 97.89 49.19 102.59 49.19 102.59 49.19"/><polygon class="cls-7" points="103.64 42.4 103.64 49.19 108.47 49.19 108.86 47.1 105.73 47.1 105.73 42.4 105.73 41.62 105.73 37.44 105.86 36.66 103.5 36.66 103.64 37.44 103.64 41.62 103.64 42.4 103.64 42.4"/><polygon class="cls-7" points="78.18 42.4 78.18 49.19 83.01 49.19 83.4 47.1 80.27 47.1 80.27 42.4 80.27 41.62 80.27 37.44 80.39 36.66 78.04 36.66 78.18 37.44 78.18 41.62 78.18 42.4 78.18 42.4"/><path class="cls-7" d="M112.91,38.88l.73,5.74h-1.46l.73-5.74Zm-1,7.83h2l.31,2.48h2.09l-1.83-12.53h-3.39l.13.78-1.69,11.75h2.08l.32-2.48Z"/><polygon class="cls-7" points="92.02 36.66 89.93 36.66 91.42 47.62 92.6 49.19 94.89 49.19 96.72 36.66 94.63 36.66 93.33 46.97 92.02 36.66 92.02 36.66"/><polygon class="cls-7" points="119.18 42.4 119.18 42.39 121.12 49.19 121.13 49.19 123.1 49.19 123.09 36.66 121 36.66 121.01 43.04 119.04 36.66 116.95 36.66 117.09 37.44 117.09 49.19 119.18 49.19 119.18 42.4 119.18 42.4"/><polygon class="cls-7" points="77.25 39.78 77.25 38.47 75.42 36.64 73.2 36.64 71.37 38.47 71.37 47.36 73.2 49.19 75.42 49.19 77.25 47.36 77.25 44.03 75.16 46.12 75.16 46.83 74.9 47.09 73.73 47.09 73.47 46.83 73.47 38.99 73.73 38.73 74.9 38.73 75.16 38.99 75.16 41.87 77.25 39.78 77.25 39.78"/></g></svg>