<svg id="Layer_1" data-name="Layer 1" xmlns="http://www.w3.org/2000/svg" viewBox="0 0 200 200"><defs><style>.cls-1{fill:#fff;}.cls-2{fill:#0a2240;}.cls-3{fill:#ffa400;}.cls-4{fill:#295135;}</style></defs><title>Team_Logos</title><g id="JAZZ"><path class="cls-1" d="M168.7,132.92l20.76-47.67H92.88l-4,9.23L86,85.25H66.69L50.28,122.72a25.41,25.41,0,0,0,.52-5.2c0-.24,0-.47,0-.71,1.43-3.27,12.71-29.12,15-34.35h53L130.19,56.4H67.41L46.76,103.67A25.76,25.76,0,1,0,46,132.48l-4.4,10.12H52.17l6.22-14.27h11.9l4.29,14.27H185.74l4.24-9.68ZM62.63,118.65l2.81-6.43,1.94,6.43Zm36.92,11.16L89,94.93h25.85c-7.62,17.38-12.34,28.16-15.27,34.88m39.93,3.11H127.31l16.55-38h12.26c-8.93,20.37-13.89,31.68-16.64,38"/><path class="cls-2" d="M.86,118.68A24.2,24.2,0,0,0,8.2,134.92a23.15,23.15,0,0,0,7.86-16.24Z"/><path class="cls-3" d="M18.18,118.68A25.21,25.21,0,0,1,9.8,136.34,24.06,24.06,0,0,0,24,141.73v-23Z"/><path class="cls-2" d="M.86,116.55h15.2A23.1,23.1,0,0,0,8.2,100.14,24.11,24.11,0,0,0,.86,116.55"/><path class="cls-3" d="M9.8,98.71a25.25,25.25,0,0,1,8.39,17.84H24V93.32A24.06,24.06,0,0,0,9.8,98.71"/><path class="cls-2" d="M49.22,118.68H34a23.14,23.14,0,0,0,7.85,16.24,24.2,24.2,0,0,0,7.34-16.24"/><path class="cls-4" d="M31.9,118.68H26.1v23a24.06,24.06,0,0,0,14.18-5.39,25.25,25.25,0,0,1-8.38-17.66"/><path class="cls-4" d="M40.28,98.71A24.06,24.06,0,0,0,26.1,93.32v23.23h5.8a25.24,25.24,0,0,1,8.38-17.84"/><path class="cls-2" d="M68.41,57.93,46.9,107.17a24.26,24.26,0,0,0-5-7A23.14,23.14,0,0,0,34,116.55H49.23L64.77,80.93h45.42l10-23Z"/><polygon class="cls-4" points="117.81 80.93 127.85 57.93 123.57 57.93 113.53 80.93 117.81 80.93 117.81 80.93"/><path class="cls-2" d="M75.72,141.06H93.81L77.47,86.79H67.69L43.91,141.06h7.23s2.68-6.13,6.25-14.27h14l4.29,14.27ZM60.28,120.18l5.43-12.38,3.73,12.38Z"/><polygon class="cls-4" points="95.45 135.6 97.97 129.9 84.89 86.78 80.61 86.78 95.45 135.6 95.45 135.6"/><path class="cls-2" d="M158.59,134.45l20.89-47.66h-30.4L146.2,93.4h12.26l-20.89,47.66h47.16l2.9-6.61Z"/><polygon class="cls-4" points="126.31 131.39 145.75 86.78 141.46 86.78 122.03 131.39 126.31 131.39 126.31 131.39"/><polygon class="cls-4" points="167.69 131.39 187.12 86.78 182.84 86.78 163.41 131.39 167.69 131.39 167.69 131.39"/><path class="cls-2" d="M138.18,86.79H93.88L91,93.4h26.19L96.28,141.06h38.21l2.87-6.61H117.3l20.88-47.66Z"/><path class="cls-2" d="M135.93,77.38h-5.64l8.59-19.45h-4.15L125.85,78c-.7,1.58,0,2.85,1.59,2.85h8.17A5,5,0,0,0,139.72,78l8.89-20.11h-4.08l-8.6,19.45Z"/><polygon class="cls-2" points="166.86 57.93 152.41 57.93 150.86 61.45 156.47 61.45 147.88 80.89 152.02 80.89 160.62 61.45 165.29 61.45 166.86 57.93 166.86 57.93"/><path class="cls-2" d="M172.66,63.65,170.24,73.7h-4l6.43-10.05Zm4.68-5.72h-4.09l-15.62,23h3.91l2.3-3.49h5.5l-.8,3.49h4.12l4.68-23Z"/><polygon class="cls-2" points="195.85 57.93 191.56 67.64 185.98 67.64 190.27 57.93 186.12 57.93 175.97 80.89 180.12 80.89 184.41 71.18 190 71.18 185.71 80.89 189.85 80.89 200 57.93 195.85 57.93 195.85 57.93"/></g></svg>